<svg viewBox="0 0 360 100"><g transform="translate(0,100) scale(0.1,-0.1)" fill="#000" stroke="none"><path d="M100 800 l0 -100 100 0 100 0 0 -300 0 -300 100 0 100 0 0 300 0 300 100 0 100 0 0 100 0 100 -300 0 -300 0 0 -100z"/><path d="M800 500 l0 -400 250 0 250 0 0 50 0 50 50 0 50 0 0 300 0 300 -50 0 -50 0 0 50 0 50 -250 0 -250 0 0 -400z m400 0 l0 -200 -100 0 -100 0 0 200 0 200 100 0 100 0 0 -200z"/><path d="M1500 500 l0 -400 100 0 100 0 0 100 0 100 100 0 100 0 0 -100 0 -100 100 0 100 0 0 100 0 100 -50 0 -50 0 0 50 0 50 50 0 50 0 0 200 0 200 -50 0 -50 0 0 50 0 50 -250 0 -250 0 0 -400z m400 100 l0 -100 -100 0 -100 0 0 100 0 100 100 0 100 0 0 -100z"/><path d="M2300 850 l0 -50 -50 0 -50 0 0 -200 0 -200 200 0 200 0 0 -50 0 -50 -200 0 -200 0 0 -100 0 -100 250 0 250 0 0 50 0 50 50 0 50 0 0 200 0 200 -200 0 -200 0 0 50 0 50 200 0 200 0 0 100 0 100 -250 0 -250 0 0 -50z"/><path d="M2900 500 l0 -400 300 0 300 0 0 100 0 100 -200 0 -200 0 0 50 0 50 200 0 200 0 0 100 0 100 -200 0 -200 0 0 50 0 50 200 0 200 0 0 100 0 100 -300 0 -300 0 0 -400z"/></g></svg>